<svg xmlns="http://www.w3.org/2000/svg" viewBox="0 0 96 96" shape-rendering="crispEdges">
  <rect width="96" height="96" fill="#23452f"/>
  <rect y="70" width="96" height="26" fill="#183021"/>
  <path d="M10 58 24 22 38 58z" fill="#3e7a47"/>
  <path d="M15 44 24 16 33 44z" fill="#57a45d"/>
  <path d="M21 58h6v18h-6z" fill="#5a3923"/>
  <path d="M38 62 52 24 66 62z" fill="#35693e"/>
  <path d="M43 48 52 18 61 48z" fill="#4f9656"/>
  <path d="M49 62h6v16h-6z" fill="#5a3923"/>
  <path d="M58 64 72 28 86 64z" fill="#3a7343"/>
  <path d="M63 50 72 22 81 50z" fill="#5eaf67"/>
  <path d="M69 64h6v14h-6z" fill="#5a3923"/>
  <path d="M8 74h80v5H8z" fill="#89b15d" opacity=".45"/>
</svg>
