<svg xmlns="http://www.w3.org/2000/svg" viewBox="0 0 220 220" role="img" aria-labelledby="title">
  <title>Knight</title>
  <path d="M110 34c-36 0-58 30-58 68 0 54 35 84 58 84s58-30 58-84c0-38-22-68-58-68Z" fill="#6f7584" stroke="#d8dce6" stroke-width="8"/>
  <path d="M84 60h52l10 34-22 36H96L74 94l10-34Z" fill="#2b303b" stroke="#d8dce6" stroke-width="8"/>
  <path d="M86 92h48M100 60l-4 70M120 60l4 70" stroke="#d8dce6" stroke-width="7"/>
  <circle cx="96" cy="104" r="7" fill="#ff5252"/>
  <circle cx="124" cy="104" r="7" fill="#ff5252"/>
  <path d="M98 138c6 5 18 5 24 0" fill="none" stroke="#d8dce6" stroke-linecap="round" stroke-width="7"/>
</svg>
