<svg xmlns="http://www.w3.org/2000/svg" viewBox="0 0 220 220" role="img" aria-labelledby="title">
  <title>Magician</title>
  <path d="M108 24 58 88h100L108 24Z" fill="#5c2ca0" stroke="#d8c4ff" stroke-linejoin="round" stroke-width="8"/>
  <path d="M66 94c0 53 18 86 44 86s44-33 44-86c-26-13-62-13-88 0Z" fill="#40206f" stroke="#d8c4ff" stroke-width="8"/>
  <circle cx="110" cy="108" r="24" fill="#f4d8bc"/>
  <ellipse cx="101" cy="109" rx="5" ry="8" fill="#251236"/>
  <ellipse cx="119" cy="109" rx="5" ry="8" fill="#251236"/>
  <path d="M100 124c4 5 16 5 20 0" fill="none" stroke="#9b4f24" stroke-linecap="round" stroke-width="5"/>
  <circle cx="150" cy="52" r="9" fill="#ffe17a"/>
  <path d="m150 37 4 8 9 3-9 3-4 8-4-8-9-3 9-3 4-8Z" fill="#fff3b0"/>
</svg>
